# xmcd
#
# Track frame offsets: 
#        150
#        31208
#        55997
#        86936
#        95519
#        118323
#        173346
#
# Disc length: 2902 seconds
#
# Revision: 0
# Processed by: cddbd v1.5.2PL0 Copyright (c) Steve Scherf et al.
# Submitted via: ExactAudioCopy v0.95b4
#
DISCID=560b5407
DTITLE=Alexey Kuznetsov - Concert in the Olympyc Village nov 25_1984
DYEAR=2005
DGENRE=Blues
TTITLE0=Blues
TTITLE1=If Could Happen to You
TTITLE2=Caravan
TTITLE3=Nuages
TTITLE4=Fallen in Love With Love
TTITLE5=Olympia
TTITLE6=C-Jam
EXTD=
EXTT0=
EXTT1=
EXTT2=
EXTT3=
EXTT4=
EXTT5=
EXTT6=
PLAYORDER=
